<svg xmlns="http://www.w3.org/2000/svg" style="display: none;">
    <symbol id="icon-test" viewBox="0 0 24 24">
        <?xml version="1.0" encoding="utf-8"?><!-- Uploaded to: SVG Repo, www.svgrepo.com, Generator: SVG Repo Mixer Tools -->
        <path fill-rule="evenodd" clip-rule="evenodd" d="M16 8C16 12.4183 12.4183 16 8 16C3.58172 16 0 12.4183 0 8C0 3.58172 3.58172 0 8 0C12.4183 0 16 3.58172 16 8ZM9.25 3.75C9.25 4.44036 8.69036 5 8 5C7.30964 5 6.75 4.44036 6.75 3.75C6.75 3.05964 7.30964 2.5 8 2.5C8.69036 2.5 9.25 3.05964 9.25 3.75ZM12 8H9.41901L11.2047 13H9.081L8 9.97321L6.91901 13H4.79528L6.581 8H4V6H12V8Z" fill="#000000"/>
    </symbol>
    <symbol id="icon-add" viewBox="0 0 24 24">
        <path
            d="M7,0H4A4,4,0,0,0,0,4V7a4,4,0,0,0,4,4H7a4,4,0,0,0,4-4V4A4,4,0,0,0,7,0ZM9,7A2,2,0,0,1,7,9H4A2,2,0,0,1,2,7V4A2,2,0,0,1,4,2H7A2,2,0,0,1,9,4Z"/>
        <path
            d="M7,13H4a4,4,0,0,0-4,4v3a4,4,0,0,0,4,4H7a4,4,0,0,0,4-4V17A4,4,0,0,0,7,13Zm2,7a2,2,0,0,1-2,2H4a2,2,0,0,1-2-2V17a2,2,0,0,1,2-2H7a2,2,0,0,1,2,2Z"/>
        <path
            d="M20,13H17a4,4,0,0,0-4,4v3a4,4,0,0,0,4,4h3a4,4,0,0,0,4-4V17A4,4,0,0,0,20,13Zm2,7a2,2,0,0,1-2,2H17a2,2,0,0,1-2-2V17a2,2,0,0,1,2-2h3a2,2,0,0,1,2,2Z"/>
        <path d="M14,7h3v3a1,1,0,0,0,2,0V7h3a1,1,0,0,0,0-2H19V2a1,1,0,0,0-2,0V5H14a1,1,0,0,0,0,2Z"/>
    </symbol>
    <symbol id="icon-text" viewBox="0 0 24 24">
        <path d="M1.5,6h21a1.5,1.5,0,0,0,0-3H1.5a1.5,1.5,0,0,0,0,3Z"/><path d="M1.5,11h13a1.5,1.5,0,0,0,0-3H1.5a1.5,1.5,0,0,0,0,3Z"/><path d="M14.5,18H1.5a1.5,1.5,0,0,0,0,3h13a1.5,1.5,0,0,0,0-3Z"/><path d="M22.5,13H1.5a1.5,1.5,0,0,0,0,3h21a1.5,1.5,0,0,0,0-3Z"/>
    </symbol>
    <symbol id="icon-list" viewBox="0 0 24 24">
        <path d="M21,15H10.26c-.8,0-1.55-.31-2.12-.88l-1.42-1.41c-.19-.19-.29-.44-.29-.71s.11-.52,.29-.71l1.42-1.41c.57-.57,1.32-.88,2.12-.88h10.74c1.65,0,3,1.35,3,3s-1.35,3-3,3Zm-12.15-4.41h0Zm9.15-4.59h-7.74c-.8,0-1.55-.31-2.12-.88l-1.42-1.41c-.19-.19-.29-.44-.29-.71s.11-.52,.29-.71l1.42-1.41c.57-.57,1.32-.88,2.12-.88h7.74c1.65,0,3,1.35,3,3s-1.35,3-3,3ZM8.85,1.59h0Zm7.15,22.41h-5.74c-.8,0-1.55-.31-2.12-.88l-1.42-1.41c-.19-.19-.29-.44-.29-.71s.11-.52,.29-.71l1.42-1.41c.57-.57,1.32-.88,2.12-.88h5.74c1.65,0,3,1.35,3,3s-1.35,3-3,3Zm-7.15-4.41h0Zm-6.85-.59c-1.1,0-2,.9-2,2s.9,2,2,2,2-.9,2-2-.9-2-2-2Zm0-9c-1.1,0-2,.9-2,2s.9,2,2,2,2-.9,2-2-.9-2-2-2ZM2,1C.9,1,0,1.9,0,3s.9,2,2,2,2-.9,2-2S3.1,1,2,1Z"/>
    </symbol>
    <symbol id="icon-list2" viewBox="0 0 24 24">
        <path d="M7,6H23a1,1,0,0,0,0-2H7A1,1,0,0,0,7,6Z"/><path d="M23,11H7a1,1,0,0,0,0,2H23a1,1,0,0,0,0-2Z"/><path d="M23,18H7a1,1,0,0,0,0,2H23a1,1,0,0,0,0-2Z"/><circle cx="2" cy="5" r="2"/><circle cx="2" cy="12" r="2"/><circle cx="2" cy="19" r="2"/>
    </symbol>
    <symbol id="icon-code" viewBox="0 0 24 24">
        <path d="m7.339 9.2c-.215.216-.34.519-.339.84 0 .322.128.624.357.85l2.478 2.238c.205.186.221.501.036.706-.185.206-.502.22-.706.036l-2.494-2.253c-.437-.43-.669-.983-.671-1.574s.227-1.146.645-1.563l2.514-2.347c.202-.188.519-.178.707.024s.177.519-.024.707l-2.502 2.334zm6.826 3.929c-.205.186-.221.501-.036.706.185.206.502.22.706.036l2.51-2.269c.42-.415.653-.968.655-1.559s-.227-1.146-.657-1.575l-2.502-2.334c-.202-.188-.518-.177-.707.024-.188.202-.177.519.024.707l2.49 2.322c.228.228.353.531.352.853 0 .322-.128.624-.341.835l-2.494 2.253zm-3.665 3.871h-.793l-.854-.854c-.094-.094-.221-.146-.354-.146h-5.499v-8.5c0-1.93 1.57-3.5 3.5-3.5h11c1.93 0 3.5 1.57 3.5 3.5v1c0 .276.224.5.5.5s.5-.224.5-.5v-1c0-2.481-2.019-4.5-4.5-4.5h-11c-2.481 0-4.5 2.019-4.5 4.5v8.551c-1.14.232-2 1.242-2 2.449 0 1.379 1.122 2.5 2.5 2.5h6c.276 0 .5-.224.5-.5s-.224-.5-.5-.5h-6c-.827 0-1.5-.673-1.5-1.5s.673-1.5 1.5-1.5h5.793l.854.854c.094.094.221.146.354.146h1c.276 0 .5-.224.5-.5s-.224-.5-.5-.5zm13.5-3.5c0 .668-.26 1.295-.732 1.768l-7.707 7.707c-.651.651-1.554 1.025-2.475 1.025h-1.586c-.276 0-.5-.224-.5-.5v-1.586c0-.936.364-1.814 1.025-2.475l7.707-7.707c.943-.944 2.592-.944 3.535 0 .472.472.732 1.1.732 1.768zm-1 0c0-.4-.156-.777-.439-1.061-.566-.566-1.555-.566-2.121 0l-7.707 7.707c-.472.472-.732 1.1-.732 1.768v1.086h1.086c.658 0 1.302-.267 1.768-.732l7.707-7.707c.283-.283.439-.66.439-1.061z"/>
    </symbol>
    <symbol id="icon-heading" viewBox="0 0 24 24">
        <path d="m24,22.5c0,.828-.672,1.5-1.5,1.5h-4c-.828,0-1.5-.672-1.5-1.5s.672-1.5,1.5-1.5h.5v-8H5v8h.5c.828,0,1.5.672,1.5,1.5s-.672,1.5-1.5,1.5H1.5c-.828,0-1.5-.672-1.5-1.5s.672-1.5,1.5-1.5h.5V3h-.5c-.828,0-1.5-.672-1.5-1.5S.672,0,1.5,0h4c.828,0,1.5.672,1.5,1.5s-.672,1.5-1.5,1.5h-.5v7h14V3h-.5c-.828,0-1.5-.672-1.5-1.5s.672-1.5,1.5-1.5h4c.828,0,1.5.672,1.5,1.5s-.672,1.5-1.5,1.5h-.5v18h.5c.828,0,1.5.672,1.5,1.5Z"/>
    </symbol>
    <symbol id="icon-code2" viewBox="0 0 24 24">
        <path d="m9.069 10.388c-.092.092-.092.241 0 .333l1.624 1.557c.398.382.412 1.016.029 1.414-.383.399-1.016.411-1.414.029l-1.638-1.572c-.886-.886-.886-2.304-.015-3.176l1.681-1.681c.391-.391 1.023-.391 1.414 0s.391 1.023 0 1.414l-1.681 1.681zm4.239 1.89c-.398.382-.412 1.016-.029 1.414.383.399 1.016.411 1.414.029l1.653-1.586c.872-.872.872-2.29 0-3.161l-1.681-1.681c-.391-.391-1.023-.391-1.414 0s-.391 1.023 0 1.414l1.681 1.681c.092.092.092.241.015.318l-1.638 1.572zm-3.308 3.722h-.086l-.707-.707c-.188-.188-.442-.293-.707-.293h-4.5v-7c0-1.654 1.346-3 3-3h10c1.654 0 3 1.346 3 3 0 .552.448 1 1 1s1-.448 1-1c0-2.757-2.243-5-5-5h-10c-2.757 0-5 2.243-5 5v7.184c-1.161.414-2 1.514-2 2.816 0 1.654 1.346 3 3 3h5c.552 0 1-.447 1-1s-.448-1-1-1h-5c-.551 0-1-.448-1-1s.449-1 1-1h5.086l.707.707c.188.188.442.293.707.293h.5c.552 0 1-.447 1-1s-.448-1-1-1zm13.121.121-6.707 6.707c-.755.756-1.76 1.172-2.828 1.172h-1.586c-.552 0-1-.447-1-1v-1.586c0-1.068.417-2.073 1.172-2.828l6.707-6.707c1.133-1.134 3.109-1.134 4.243 0 1.169 1.17 1.169 3.072 0 4.242zm-1.414-2.828c-.378-.379-1.037-.379-1.414 0l-6.708 6.707c-.378.378-.586.88-.586 1.414v.586h.586c.526 0 1.042-.214 1.414-.586l6.707-6.707c.39-.39.39-1.024 0-1.414z"/>
    </symbol>
    <symbol id="icon-back" viewBox="0 0 24 24">
        <path d="m22 12c0 6.732-.913 10.137-.951 10.279-.14.513-.64.817-1.126.694-.122-.03-3.049-.792-7.877-4.198-4.633-3.269-6.631-5.87-6.844-6.156-.135-.181-.202-.4-.202-.619s.067-.437.202-.619c.213-.286 2.211-2.887 6.844-6.156 4.827-3.406 7.754-4.168 7.877-4.198.493-.123.985.182 1.126.694.039.142.951 3.547.951 10.279zm-17.094-10.935c-.792-.242-1.631.204-1.873.996-.042.138-1.033 3.456-1.033 9.938s.991 9.8 1.033 9.938c.239.798 1.099 1.235 1.868.995.791-.239 1.239-1.076 1.002-1.868-.009-.03-.904-3.09-.904-9.066s.895-9.036.902-9.062c.242-.792-.204-1.631-.996-1.873z"/>
    </symbol>
    <symbol id="icon-delete" viewBox="0 0 24 24">
        <path d="M15.207,14.207,13.414,16l1.793,1.793a1,1,0,1,1-1.414,1.414L12,17.414l-1.793,1.793a1,1,0,0,1-1.414-1.414L10.586,16,8.793,14.207a1,1,0,0,1,1.414-1.414L12,14.586l1.793-1.793a1,1,0,0,1,1.414,1.414ZM22,10.485V19a5.006,5.006,0,0,1-5,5H7a5.006,5.006,0,0,1-5-5V5A5.006,5.006,0,0,1,7,0h4.515a6.958,6.958,0,0,1,4.95,2.05l3.484,3.486A6.951,6.951,0,0,1,22,10.485ZM15.051,3.464A5.01,5.01,0,0,0,14,2.684V7a1,1,0,0,0,1,1h4.316a4.983,4.983,0,0,0-.781-1.05ZM20,10.485c0-.165-.032-.323-.047-.485H15a3,3,0,0,1-3-3V2.047C11.838,2.032,11.679,2,11.515,2H7A3,3,0,0,0,4,5V19a3,3,0,0,0,3,3H17a3,3,0,0,0,3-3Z"/>
    </symbol>
</svg>
